<svg width="4058" height="2760" viewBox="0 0 4058 2760" fill="none" xmlns="http://www.w3.org/2000/svg">
<g clip-path="url(#clip0_1_3)">
<rect width="4058" height="2760" fill="white"/>
<g clip-path="url(#clip1_1_3)">
<mask id="mask0_1_3" style="mask-type:luminance" maskUnits="userSpaceOnUse" x="0" y="-117" width="4178" height="3040">
<path d="M4178 -117H0V2923H4178V-117Z" fill="white"/>
</mask>
<g mask="url(#mask0_1_3)">
<path d="M4178 -117H0V2923H4178V-117Z" fill="white"/>
<g opacity="0.09">
<path d="M-146.86 1738.46H4238.81" stroke="#222020" stroke-width="1.2607"/>
<path d="M-146.86 2696.59H4238.81" stroke="#222020" stroke-width="1.2607"/>
<path d="M-146.86 780.331H4238.81" stroke="#222020" stroke-width="1.2607"/>
<path d="M-146.86 1259.39H4238.81" stroke="#222020" stroke-width="1.2607"/>
<path d="M-146.86 2217.52H4238.81" stroke="#222020" stroke-width="1.2607"/>
<path d="M-146.86 301.264H4238.81" stroke="#222020" stroke-width="1.2607"/>
<path d="M-146.86 1498.93L4238.81 1498.93" stroke="#222020" stroke-width="1.2607"/>
<path d="M-146.86 2457.06H4238.81" stroke="#222020" stroke-width="1.2607"/>
<path d="M-146.86 540.798H4238.81" stroke="#222020" stroke-width="1.2607"/>
<path d="M-146.86 1019.86H4238.81" stroke="#222020" stroke-width="1.2607"/>
<path d="M-146.86 1978H4238.81" stroke="#222020" stroke-width="1.2607"/>
<path d="M-146.86 61.7312H4238.81" stroke="#222020" stroke-width="1.2607"/>
<path d="M1863.09 -262.009V3203.73" stroke="#222020" stroke-width="1.2607"/>
<path d="M926.701 -262.01V3203.72" stroke="#222020" stroke-width="1.2607"/>
<path d="M2799.48 -262.009V3203.73" stroke="#222020" stroke-width="1.2607"/>
<path d="M3735.89 -262.009V3203.73" stroke="#222020" stroke-width="1.2607"/>
<path d="M458.501 -262.009V3203.73" stroke="#222020" stroke-width="1.2607"/>
<path d="M2331.28 -262.009V3203.73" stroke="#222020" stroke-width="1.2607"/>
<path d="M1394.9 -262.009V3203.73" stroke="#222020" stroke-width="1.2607"/>
<path d="M3267.69 -262.01V3203.72" stroke="#222020" stroke-width="1.2607"/>
<path d="M224.409 -262.009V3203.73" stroke="#222020" stroke-width="1.2607"/>
<path d="M2097.19 -262.01V3203.72" stroke="#222020" stroke-width="1.2607"/>
<path d="M1160.79 -262.009L1160.79 3203.73" stroke="#222020" stroke-width="1.2607"/>
<path d="M3033.58 -262.009V3203.73" stroke="#222020" stroke-width="1.2607"/>
<path d="M3969.97 -262.009V3203.73" stroke="#222020" stroke-width="1.2607"/>
<path d="M692.608 -262.009V3203.73" stroke="#222020" stroke-width="1.2607"/>
<path d="M2565.39 -262.009V3203.73" stroke="#222020" stroke-width="1.2607"/>
<path d="M1628.99 -262.009V3203.73" stroke="#222020" stroke-width="1.2607"/>
<path d="M3501.77 -262.009V3203.73" stroke="#222020" stroke-width="1.2607"/>
</g>
<g opacity="0.5">
<path d="M2564.22 2217.35H2331.45V2455.53H2564.22V2217.35Z" fill="#2B7EFF" fill-opacity="0.5"/>
<path d="M1393.73 2217.35H1160.96V2455.53H1393.73V2217.35Z" fill="#8AC4FF" fill-opacity="0.2"/>
<path d="M3501.94 543.348H3269.17V778.117H3501.94V543.348Z" fill="#8AC4FF" fill-opacity="0.25"/>
<path d="M1626.5 1261.11H1393.73V1495.88H1626.5V1261.11Z" fill="#8AC4FF" fill-opacity="0.15"/>
<path d="M3265.85 781.519H3033.08V1016.29H3265.85V781.519Z" fill="#8AC4FF" fill-opacity="0.25"/>
<path d="M1393.31 543.348H1160.54V778.117H1393.31V543.348Z" fill="#2B7EFF" fill-opacity="0.15"/>
<path d="M3265.85 543.348H3033.08V778.117H3265.85V543.348Z" fill="#8AC4FF" fill-opacity="0.25"/>
<path d="M1393.31 1261.11H1160.54V1495.88H1393.31V1261.11Z" fill="#8AC4FF" fill-opacity="0.15"/>
<path d="M1160.96 2217.35H928.195V2455.53H1160.96V2217.35Z" fill="#8AC4FF" fill-opacity="0.2"/>
<path d="M1160.96 2455.53H928.195V2697.1H1160.96V2455.53Z" fill="#D8EAFF" fill-opacity="0.2"/>
<path d="M692.104 1979.18H459.336V2217.35H692.104V1979.18Z" fill="#8AC4FF" fill-opacity="0.2"/>
<path d="M3033.08 63.6021H2800.31V301.774H3033.08V63.6021Z" fill="#8AC4FF" fill-opacity="0.15"/>
<path d="M2797.77 -175.937H2565V60.0966H2797.77V-175.937Z" fill="#8AC4FF" fill-opacity="0.15"/>
<path d="M2797.77 62.3282H2565V299.913H2797.77V62.3282Z" fill="#8AC4FF" fill-opacity="0.15"/>
<path d="M695.429 298.373H459.336V543.349H695.429V298.373Z" fill="#2B7EFF" fill-opacity="0.2"/>
<path d="M459.336 60.1999H223.243V298.371H459.336V60.1999Z" fill="#2B7EFF" fill-opacity="0.2"/>
<path d="M226.568 63.6021H-9.52441V301.774H226.568V63.6021Z" fill="#2B7EFF" fill-opacity="0.2"/>
<path d="M459.336 298.373H223.243V543.349H459.336V298.373Z" fill="#2B7EFF" fill-opacity="0.2"/>
<path d="M1397.06 -177.972H1160.96V60.1999H1397.06V-177.972Z" fill="#2B7EFF" fill-opacity="0.25"/>
<path d="M692.104 778.117H459.336V1019.69H692.104V778.117Z" fill="#2B7EFF" fill-opacity="0.2"/>
<path d="M3501.94 1979.18H3269.17V2217.35H3501.94V1979.18Z" fill="#8AC4FF" fill-opacity="0.15"/>
<path d="M3734.71 2217.35H3501.95V2455.53H3734.71V2217.35Z" fill="#8AC4FF" fill-opacity="0.15"/>
</g>
</g>
</g>
</g>
<defs>
<clipPath id="clip0_1_3">
<rect width="4058" height="2760" fill="white"/>
</clipPath>
<clipPath id="clip1_1_3">
<rect width="4178" height="3040" fill="white" transform="translate(0 -117)"/>
</clipPath>
</defs>
</svg>
